<svg width="256" height="256" viewBox="0 0 256 256" fill="none" xmlns="http://www.w3.org/2000/svg">
<rect width="256" height="256" fill="white"/>
<path d="M62.2591 198.569C61.0764 198.766 59.8936 198.766 58.7109 198.766C53.1914 198.766 49.0517 197.583 46.4891 194.824C42.5466 190.881 42.1523 184.573 42.1523 182.01C42.1523 176.294 44.9121 171.366 44.9121 171.366L50.0374 163.086L42.5466 156.778C42.5466 156.778 38.407 153.033 36.83 147.513C36.0415 144.951 34.2673 138.446 37.0271 133.518C39.1955 129.772 43.9265 127.21 50.6287 125.435C53.7827 124.647 56.9367 124.253 60.2879 124.253C84.3372 124.253 106.809 142.98 116.469 152.442C109.372 165.846 90.2509 195.809 62.2591 198.569ZM229.027 150.865C233.364 138.051 231.787 119.719 206.752 113.805C170.875 105.526 137.364 136.277 127.31 146.725C118.44 137.46 91.2365 112.622 60.2879 112.622C56.1482 112.622 52.0086 113.017 48.0661 113.805C23.0312 119.522 21.6513 138.051 25.7909 150.865C28.7478 159.735 35.0558 165.255 35.0558 165.255C35.0558 165.255 30.7191 172.351 30.7191 181.813C30.7191 194.429 36.83 210.396 58.7109 210.396C60.0907 210.396 61.6678 210.199 63.2448 210.199C87.0969 208.031 104.641 190.684 115.877 175.111C115.877 175.111 124.156 164.269 127.31 162.692C130.267 164.072 138.349 174.717 138.744 175.111C149.98 190.487 167.721 208.228 191.376 210.199C217.002 212.565 223.902 195.415 223.902 182.01C223.902 172.746 219.565 165.452 219.565 165.452C219.565 165.452 226.267 159.735 229.027 150.865Z" fill="#1968FF"/>
<path d="M110.949 80.4927L136.969 76.1559L97.1499 47.3756C91.4333 49.1497 86.1109 52.8951 82.7598 59.7945L110.949 80.4927Z" fill="#1249A0"/>
<path d="M79.4087 73.1991L95.3758 84.6323L92.6161 66.8911V66.6939L83.3512 59.7946C80.9857 63.3428 79.8029 67.6796 79.4087 73.1991Z" fill="#0C254C"/>
<path d="M153.726 111.44L156.091 126.028C158.457 123.465 160.428 120.705 162.596 117.748L153.726 111.44Z" fill="#1249A0"/>
<path d="M115.286 60.3853L137.167 76.3525L159.639 72.8042L130.661 51.9089C128.887 53.0917 127.902 53.6831 127.902 53.6831C127.902 53.6831 121.594 48.3607 112.329 46.7837C107.598 45.9952 102.275 45.9952 97.5444 47.5722L115.286 60.3853Z" fill="#1968FF"/>
<path d="M82.7598 59.9929L97.9384 71.032L94.3902 48.5597C89.6592 50.7281 85.5195 54.2763 82.7598 59.9929Z" fill="#1968FF"/>
<path d="M167.722 109.667L158.852 103.359L161.02 116.96L163.385 116.566C164.962 114.201 166.342 111.835 167.722 109.667Z" fill="#4E90F9"/>
<path d="M128.494 106.316L129.282 111.441L133.225 105.527L128.494 106.316Z" fill="#FAC12D"/>
<path d="M174.03 95.4736L145.447 74.9725L128.888 77.7323L148.009 91.531L169.299 106.71C171.27 103.161 172.847 99.2189 174.03 95.4736Z" fill="#1249A0"/>
<path d="M140.124 101.782L158.457 98.8247L129.085 77.5352L110.752 80.492L140.124 101.782Z" fill="#4E90F9"/>
<path d="M145.25 74.972L176.001 70.0438C176.198 71.4237 176.395 73.0007 176.592 74.5777C177.184 82.0685 176.001 88.9678 173.833 95.6701L145.25 74.972Z" fill="#0C254C"/>
<path d="M92.0249 66.6943L98.7272 108.288L140.321 101.586L92.0249 66.6943Z" fill="#0C254C"/>
<path d="M90.0537 94.686L105.429 92.3205L87.491 79.5073L79.0146 80.6901C79.2118 83.0556 79.2118 85.0268 79.8031 87.1952L90.0537 94.686Z" fill="#4E90F9"/>
<path d="M137.364 83.647L140.124 101.585L158.457 98.8256L137.364 83.647Z" fill="#1968FF"/>
<path d="M167.327 52.3049L153.528 54.6704L152.345 46.3911C157.668 46.7854 162.99 48.3624 167.327 52.3049Z" fill="#0C254C"/>
<path d="M81.9717 96.0647L90.251 94.882L80.0005 87.1941C80.3947 90.151 80.9861 93.1078 81.9717 96.0647Z" fill="#1249A0"/>
<path d="M97.9395 102.767L125.34 122.48L136.97 120.509L123.369 110.849L109.767 100.796L97.9395 102.767Z" fill="#1249A0"/>
<path d="M129.085 103.359L115.878 105.527L136.97 120.509L150.178 118.34L129.085 103.359Z" fill="#4E90F9"/>
<path d="M125.34 122.481L101.685 126.423L97.9395 102.768L125.34 122.481Z" fill="#1249A0"/>
<path d="M161.611 119.13L158.26 98.6285L128.888 103.36L157.471 124.058C158.851 122.481 160.231 120.707 161.611 119.13Z" fill="#1968FF"/>
<path d="M104.444 126.029L105.429 132.14C111.343 138.054 117.257 142.982 121.397 145.939L120.017 137.265L104.444 126.029Z" fill="#3262AA"/>
<path d="M117.848 123.663L104.247 126.028L127.902 143.178L140.518 141.01L141.109 140.616L117.848 123.663Z" fill="#1249A0"/>
<path d="M131.057 116.369L128.888 103.359L115.878 105.527L131.057 116.369Z" fill="#1249A0"/>
<path d="M147.023 132.928L131.45 121.494L118.045 123.663L133.618 135.096L141.306 140.616C143.672 138.644 146.037 136.279 148.6 133.913L147.023 132.928Z" fill="#1968FF"/>
<path d="M167.327 52.3043L156.485 54.0784L175.607 67.8772C174.03 60.7807 171.073 55.6555 167.327 52.3043Z" fill="#0C254C"/>
<path d="M119.426 63.5389L116.863 47.7689C115.483 47.1775 113.906 46.9804 112.329 46.5862C107.598 45.7977 102.276 45.7977 97.3477 47.3747L119.426 63.5389Z" fill="#4E90F9"/>
<path d="M140.124 101.783L161.413 117.356L158.456 98.826L140.124 101.783Z" fill="#4E90F9"/>
<path d="M95.179 84.6322L83.9429 76.7472L85.5199 86.2092L95.179 84.6322Z" fill="#4E90F9"/>
<path d="M82.563 59.9921L82.9581 60.3873V59.7946L82.563 59.9921Z" fill="#DC3438"/>
<path d="M175.607 67.8756L156.485 54.0768L159.442 72.6066L176.001 69.8468C175.804 69.2554 175.804 68.4669 175.607 67.8756Z" fill="#4E90F9"/>
<path d="M131.253 121.494L148.403 133.913C151.557 130.956 154.514 127.802 157.471 124.253L156.485 117.551L131.253 121.494Z" fill="#C5353D"/>
<path d="M159.836 115.975L162.399 117.749C162.99 116.96 163.581 115.975 164.173 115.186L159.836 115.975Z" fill="#1249A0"/>
<path d="M137.561 57.0353L156.485 53.8813L159.441 73.0025L137.561 57.0353Z" fill="#4E90F9"/>
<path d="M142.686 46.7833L153.528 54.6683L152.345 46.389C149.388 46.1919 146.431 46.1919 143.672 46.7833C143.277 46.7833 143.08 46.7833 142.686 46.7833Z" fill="#4E90F9"/>
<path d="M97.5442 123.269L101.881 126.423L96.5586 93.8973L82.1685 96.2628C85.5196 106.316 91.2362 115.384 97.5442 123.269Z" fill="#0C254C"/>
<path d="M79.4087 73.1993L84.1397 76.5504L81.7742 61.9631C80.5914 65.3143 79.6058 69.0597 79.4087 73.1993Z" fill="#4CC1BC"/>
<path d="M149.783 127.015L149.98 128.197L148.994 128.395L148.6 127.409L149.783 127.015Z" fill="#EF4537"/>
<path d="M146.038 55.6547L153.529 54.4719L142.687 46.7841C140.321 47.1783 138.35 47.9668 136.379 48.5582L146.038 55.6547Z" fill="#4E90F9"/>
<path d="M67.3843 64.5261L83.9428 76.7479L81.9716 62.1606L67.3843 64.5261Z" fill="#1968FF"/>
<path d="M131.253 121.494L160.428 142.586L156.485 117.551L131.253 121.494Z" fill="#1249A0"/>
<path d="M174.226 119.325L172.649 109.863L183.491 117.946L174.226 119.325Z" fill="#4E90F9"/>
<path d="M93.6018 45.0086L92.6162 39.4891L87.0967 40.2776L93.6018 45.0086Z" fill="#4E90F9"/>
<path d="M134.998 47.7695L126.719 49.1494L137.561 57.0344L146.038 55.6545L134.998 47.7695Z" fill="#1968FF"/>
<path d="M66.0044 77.1412L66.7929 82.6607L72.5095 81.8722L66.0044 77.1412Z" fill="#4E90F9"/>
<path d="M90.2509 137.068L82.563 138.447L91.6307 144.953L99.3186 143.573L90.2509 137.068Z" fill="#0C254C"/>
<path d="M99.9105 114.396L94.1938 122.478L101.882 126.421L99.9105 114.396Z" fill="#1249A0"/>
<path d="M120.214 137.265L135.787 148.501L122.383 150.67L120.214 137.265Z" fill="#1249A0"/>
<path d="M123.368 158.158L130.859 156.975L122.185 150.667L123.368 158.158Z" fill="#1968FF"/>
<path d="M111.738 132.14L112.526 138.054L118.44 137.068L111.738 132.14Z" fill="#4E90F9"/>
<path d="M135.787 148.501L124.354 140.222L134.013 138.645L135.787 148.501Z" fill="#4E90F9"/>
<path d="M150.966 39.2927L152.149 46.7835L143.475 40.2784L150.966 39.2927Z" fill="#4E90F9"/>
<path d="M114.3 32L115.877 41.462L125.339 39.885L114.3 32Z" fill="#4E90F9"/>
<path d="M158.653 72.8035L178.366 69.4524L181.52 89.362L158.653 72.8035Z" fill="#1249A0"/>
<path d="M90.4484 123.465L89.8571 119.522L85.9146 120.311L90.4484 123.465Z" fill="#4E90F9"/>
<path d="M90.2515 123.465L95.5738 127.408L91.04 128.196L90.2515 123.465Z" fill="#4E90F9"/>
<path d="M106.613 139.236L91.0405 128L104.445 126.029L106.613 139.236Z" fill="#0C254C"/>
<path d="M152.937 146.135L145.052 147.515L154.12 154.217L162.202 152.837L152.937 146.135Z" fill="#4E90F9"/>
<path d="M180.929 57.0344L181.915 62.9482L188.026 62.1597L180.929 57.0344Z" fill="#0C254C"/>
<path d="M131.055 171.368C128.69 171.368 126.324 171.368 124.156 171.368C122.185 188.912 120.213 206.456 118.242 224H137.166C134.998 206.456 133.027 188.912 131.055 171.368Z" fill="#1968FF"/>
</svg>
