<svg width="28" height="28" viewBox="0 0 28 28" fill="none" xmlns="http://www.w3.org/2000/svg">
<path d="M4.66663 14C4.66663 19.1546 8.8453 23.3334 14 23.3334C19.1546 23.3334 23.3333 19.1546 23.3333 14C23.3333 8.84536 19.1546 4.66669 14 4.66669C8.8453 4.66669 4.66663 8.84536 4.66663 14Z" stroke="#1968FF" stroke-linecap="round" stroke-linejoin="round"/>
<path d="M14.9333 4.71271C14.9333 4.71271 17.7333 8.39995 17.7333 13.9999C17.7333 19.5999 14.9333 23.2872 14.9333 23.2872" stroke="#1968FF" stroke-linecap="round" stroke-linejoin="round"/>
<path d="M13.0667 23.2872C13.0667 23.2872 10.2667 19.5999 10.2667 13.9999C10.2667 8.39995 13.0667 4.71271 13.0667 4.71271" stroke="#1968FF" stroke-linecap="round" stroke-linejoin="round"/>
<path d="M5.25427 17.2667H22.7456" stroke="#1968FF" stroke-linecap="round" stroke-linejoin="round"/>
<path d="M5.25427 10.7333H22.7456" stroke="#1968FF" stroke-linecap="round" stroke-linejoin="round"/>
<path d="M25.7772 2.625L24.5 3.90219" stroke="#1968FF" stroke-linecap="round" stroke-linejoin="round"/>
<path d="M2.625 2.625L3.90219 3.90219" stroke="#1968FF" stroke-linecap="round" stroke-linejoin="round"/>
<path d="M25.7772 24.0272L24.5 22.75" stroke="#1968FF" stroke-linecap="round" stroke-linejoin="round"/>
<path d="M2.625 24.0272L3.90219 22.75" stroke="#1968FF" stroke-linecap="round" stroke-linejoin="round"/>
</svg>
